<svg width="24" height="24" viewBox="0 0 24 24" fill="none" xmlns="http://www.w3.org/2000/svg">
<path d="M11.9141 21.9056L6.94336 23.9141L4.9349 18.9433L0 16.849L2.09432 11.9141L0.0858572 6.94339L5.05662 4.93489L7.15098 0L12.0859 2.09436L17.0566 0.0858978L19.0651 5.05665L24 7.15097L21.9056 12.0859L23.9141 17.0566L18.9434 19.0651L16.849 24L11.9141 21.9048V21.9056ZM11.9258 20.5608L13.7359 16.2962L18.0004 18.1063L16.2646 13.8109L20.56 12.075L16.2954 10.265L18.1054 6.00043L13.81 7.73625L12.0742 3.44084L10.2641 7.7054L5.99958 5.89536L7.73541 10.1908L3.43999 11.9266L7.70456 13.7367L5.89451 18.0012L10.1899 16.2654L11.9258 20.5608Z" fill="url(#paint0_linear_66_527)"/>
<defs>
<linearGradient id="paint0_linear_66_527" x1="5" y1="4.5" x2="19" y2="19" gradientUnits="userSpaceOnUse">
<stop stop-color="#FF48C9"/>
<stop offset="1" stop-color="#9B23EA"/>
</linearGradient>
</defs>
</svg>
