<svg width="67" height="66" viewBox="0 0 67 66" fill="none" xmlns="http://www.w3.org/2000/svg">
<path d="M16 0C7.15687 0 0 7.15625 0 16C0 24.8431 7.15625 32 16 32C24.8431 32 32 24.8438 32 16C32 7.15687 24.8438 0 16 0ZM12.1929 22.7494C12.1929 22.7494 6.6665 17.2207 6.26925 16.8242C5.38556 15.9406 5.38556 14.5026 6.26925 13.6196C7.15519 12.7337 8.58794 12.7337 9.47388 13.6196L13.0516 17.1974C13.4965 17.6422 14.2185 17.6392 14.6596 17.1921L22.5152 9.22319C23.3982 8.32744 24.8408 8.32137 25.7312 9.21187C26.6081 10.0887 26.6134 11.5207 25.7425 12.4044C17.2117 21.0598 15.5916 22.7486 15.5916 22.7486C14.6551 23.6851 13.1302 23.6859 12.1929 22.7494Z" fill="#3F51B5"/>
<path d="M51.0625 34C42.2744 34 35 41.1494 35 49.9375C35 58.7256 42.2744 66 51.0625 66C59.8506 66 67 58.7256 67 49.9375C67 41.1494 59.8506 34 51.0625 34ZM58.9512 55.1744C59.6825 55.9056 59.6825 57.095 58.9512 57.8269C58.2256 58.5519 57.0363 58.5637 56.2988 57.8269L51.0625 52.5888L45.7006 57.8275C44.9694 58.5587 43.78 58.5587 43.0481 57.8275C42.3169 57.0962 42.3169 55.9069 43.0481 55.175L48.2856 49.9375L43.0481 44.7C42.3169 43.9681 42.3169 42.7788 43.0481 42.0475C43.78 41.3163 44.9694 41.3163 45.7006 42.0475L51.0625 47.2863L56.2988 42.0475C57.0288 41.3175 58.2181 41.315 58.9512 42.0475C59.6825 42.7788 59.6825 43.9681 58.9512 44.7L53.7138 49.9375L58.9512 55.1744Z" fill="#3F51B5"/>
<path d="M54 4H62V30H54V4Z" fill="#3F51B5"/>
<path d="M36 12V4H62V12L36 12Z" fill="#3F51B5"/>
<path d="M13 62L5 62L5 36L13 36L13 62Z" fill="#3F51B5"/>
<path d="M31 54V62L5 62L5 54H31Z" fill="#3F51B5"/>
</svg>
