<svg width="37" height="34" viewBox="0 0 37 34" fill="none" xmlns="http://www.w3.org/2000/svg">
<path d="M2.57525 33.2638C2.72095 33.4984 3.02922 33.5704 3.2638 33.4247L7.08652 31.0506C7.3211 30.9049 7.39316 30.5966 7.24747 30.362C7.10178 30.1274 6.7935 30.0554 6.55892 30.2011L3.16095 32.3115L1.05055 28.9135C0.904861 28.6789 0.596589 28.6068 0.362007 28.7525C0.127426 28.8982 0.0553674 29.2065 0.20106 29.4411L2.57525 33.2638ZM37 0.5C26.4877 0.499957 18.637 5.25048 13.0357 11.6713C7.4439 18.0812 4.08491 26.162 2.51312 32.8862L3.48688 33.1138C5.03176 26.5047 8.3311 18.5854 13.7893 12.3287C19.238 6.08277 26.8289 1.49996 37 1.5L37 0.5Z" fill="white"/>
</svg>
