<svg width="24" height="24" viewBox="0 0 24 24" fill="none" xmlns="http://www.w3.org/2000/svg">
<path d="M21.7423 17.8747L13.5386 4.26958C13.2154 3.7336 12.6259 3.40063 12 3.40063C11.3741 3.40063 10.7845 3.7336 10.4613 4.26962L2.25763 17.8747C1.92361 18.4287 1.91373 19.1228 2.23181 19.6861C2.54998 20.2493 3.14943 20.5993 3.79631 20.5993H20.2036C20.8505 20.5993 21.45 20.2493 21.7682 19.686C22.0863 19.1227 22.0764 18.4286 21.7423 17.8747ZM20.6344 19.0458C20.5468 19.2008 20.3817 19.2972 20.2036 19.2972H3.79631C3.61822 19.2972 3.45318 19.2008 3.36564 19.0458C3.27806 18.8907 3.2808 18.6996 3.37271 18.5472L11.5764 4.942C11.6654 4.79446 11.8277 4.70278 12 4.70278C12.1723 4.70278 12.3346 4.79446 12.4236 4.942L20.6272 18.5472C20.7192 18.6997 20.7219 18.8907 20.6344 19.0458Z" fill="#C62B2B"/>
<path d="M12.006 8.75798C11.5107 8.75798 11.1242 9.02376 11.1242 9.49493C11.1242 10.9325 11.2933 12.9983 11.2933 14.4359C11.2933 14.8104 11.6195 14.9674 12.0061 14.9674C12.296 14.9674 12.7067 14.8104 12.7067 14.4359C12.7067 12.9983 12.8758 10.9325 12.8758 9.49493C12.8758 9.0238 12.4772 8.75798 12.006 8.75798Z" fill="#C62B2B"/>
<path d="M12.0182 15.801C11.4867 15.801 11.0879 16.2238 11.0879 16.7312C11.0879 17.2265 11.4866 17.6615 12.0182 17.6615C12.5135 17.6615 12.9363 17.2265 12.9363 16.7312C12.9363 16.2238 12.5135 15.801 12.0182 15.801Z" fill="#C62B2B"/>
</svg>
