<svg width="14" height="18" viewBox="0 0 14 18" fill="none" xmlns="http://www.w3.org/2000/svg">
<path id="Vector" d="M11.4969 0.644871C10.2493 0.229008 8.60094 0 6.85547 0C5.11 0 3.46163 0.229008 2.21407 0.644871C0.384117 1.25487 0 2.06473 0 2.63672V15.3633C0 15.9353 0.384117 16.7451 2.21407 17.3551C3.46163 17.771 5.11 18 6.85547 18C8.60094 18 10.2493 17.771 11.4969 17.3551C13.3268 16.7451 13.7109 15.9353 13.7109 15.3633C13.7109 11.67 13.7109 6.69006 13.7109 2.63672C13.7109 2.06473 13.3268 1.25487 11.4969 0.644871ZM2.54756 1.64545C3.69046 1.2645 5.22035 1.05469 6.85547 1.05469C8.49059 1.05469 10.0205 1.2645 11.1634 1.64545C12.3442 2.03906 12.6562 2.46596 12.6562 2.63672C12.6562 2.80747 12.3442 3.23438 11.1634 3.62798C10.0205 4.00894 8.49059 4.21875 6.85547 4.21875C5.22035 4.21875 3.69046 4.00894 2.54756 3.62798C1.3667 3.23438 1.05469 2.80747 1.05469 2.63672C1.05469 2.46596 1.3667 2.03906 2.54756 1.64545ZM11.1634 16.3545C10.0205 16.7355 8.49059 16.9453 6.85547 16.9453C5.22035 16.9453 3.69046 16.7355 2.54756 16.3545C1.3667 15.9609 1.05469 15.534 1.05469 15.3633V12.5886C1.35471 12.7679 1.73471 12.9414 2.21407 13.1012C3.46163 13.5171 5.11 13.7461 6.85547 13.7461C8.60094 13.7461 10.2493 13.5171 11.4969 13.1012C11.9762 12.9414 12.3562 12.7679 12.6562 12.5886V15.3633C12.6562 15.534 12.3442 15.9609 11.1634 16.3545ZM12.6562 11.1094C12.6562 11.2801 12.3442 11.707 11.1634 12.1006C10.0205 12.4816 8.49059 12.6914 6.85547 12.6914C5.22035 12.6914 3.69046 12.4816 2.54756 12.1006C1.3667 11.707 1.05469 11.2801 1.05469 11.1094C1.05469 10.8451 1.05469 8.69175 1.05469 8.36982C1.35471 8.54916 1.73471 8.72269 2.21407 8.88247C3.46163 9.29834 5.11 9.52734 6.85547 9.52734C8.60094 9.52734 10.2493 9.29834 11.4969 8.88247C11.9762 8.72269 12.3562 8.54919 12.6562 8.36982V11.1094ZM12.6562 6.89062C12.6562 7.06138 12.3442 7.48828 11.1634 7.88189C10.0205 8.26284 8.49059 8.47266 6.85547 8.47266C5.22035 8.47266 3.69046 8.26284 2.54756 7.88189C1.3667 7.48828 1.05469 7.06138 1.05469 6.89062C1.05469 5.5743 1.05469 5.29056 1.05469 4.11592C1.35471 4.29525 1.73471 4.46878 2.21407 4.62857C3.46163 5.04443 5.11 5.27344 6.85547 5.27344C8.60094 5.27344 10.2493 5.04443 11.4969 4.62857C11.9762 4.46878 12.3562 4.29528 12.6562 4.11592V6.89062Z" fill="#3F51BF"/>
</svg>
