<svg width="14" height="14" viewBox="0 0 14 14" fill="none" xmlns="http://www.w3.org/2000/svg">
<path fill-rule="evenodd" clip-rule="evenodd" d="M7 14C10.866 14 14 10.866 14 7C14 3.13401 10.866 0 7 0C3.13401 0 0 3.13401 0 7C0 10.866 3.13401 14 7 14ZM4.32815 10.5052C4.49134 10.6684 4.68752 10.75 4.91669 10.75H9.08335C9.31252 10.75 9.5087 10.6684 9.6719 10.5052C9.83509 10.342 9.91669 10.1458 9.91669 9.91667V4.5H10.3334V3.66667H8.25002V3.25H5.75002V3.66667H3.66669V4.5H4.08335V9.91667C4.08335 10.1458 4.16495 10.342 4.32815 10.5052ZM4.91669 4.5H9.08335V9.91667H4.91669V4.5ZM6.58335 9.08333H5.75002V5.33333H6.58335V9.08333ZM8.25002 9.08333H7.41669V5.33333H8.25002V9.08333Z" fill="#f95959"/>
</svg>
