<svg width="34" height="24" viewBox="0 0 34 24" fill="none" xmlns="http://www.w3.org/2000/svg">
<path id="Vector" d="M31.0117 0H2.98828C1.33722 0 0 1.3508 0 3V21C0 22.659 1.34705 24 2.98828 24H31.0117C32.649 24 34 22.6647 34 21V3C34 1.35373 32.6681 0 31.0117 0ZM30.5932 2C29.9827 2.60967 19.4758 13.1022 19.113 13.4645C18.5486 14.0311 17.7982 14.3431 17 14.3431C16.2018 14.3431 15.4514 14.0311 14.8851 13.4626C14.6411 13.2189 4.2502 2.84227 3.40677 2H30.5932ZM1.99219 20.5929V3.40833L10.601 12.0053L1.99219 20.5929ZM3.40804 22L12.0134 13.4158L13.4783 14.8787C14.419 15.8231 15.6697 16.3431 17 16.3431C18.3303 16.3431 19.581 15.8231 20.5199 14.8805L21.9866 13.4158L30.592 22H3.40804ZM32.0078 20.5929L23.399 12.0053L32.0078 3.40833V20.5929Z" fill="#9B23EA"/>
</svg>
