<svg xmlns="http://www.w3.org/2000/svg" width="22" height="15" viewBox="0 0 22 15" fill="none">
  <path d="M1.05483 6.44567C2.89574 4.97213 6.6357 2.5 11 2.5C15.3643 2.5 19.1042 4.97209 20.9452 6.44567C21.2197 6.66546 21.6259 6.62771 21.8525 6.36154C22.0791 6.09534 22.0403 5.70142 21.7657 5.48167C21.6138 5.36004 21.4497 5.23204 21.274 5.09946C21.7374 4.54738 22 3.85034 22 3.125C22 2.77983 21.7114 2.5 21.3555 2.5C20.9995 2.5 20.7109 2.77983 20.7109 3.125C20.7109 3.58188 20.5369 4.01988 20.2324 4.35854C19.8308 4.08963 19.3926 3.81508 18.9215 3.54588C19.2446 3.05004 19.4219 2.47038 19.4219 1.875C19.4219 1.52983 19.1333 1.25 18.7773 1.25C18.4214 1.25 18.1328 1.52983 18.1328 1.875C18.1328 2.25908 18.0095 2.63217 17.787 2.94371C17.3266 2.71792 16.8428 2.50304 16.3382 2.30679C16.6653 1.81096 16.8437 1.23067 16.8437 0.625C16.8437 0.279833 16.5552 0 16.1992 0C15.8433 0 15.5547 0.279833 15.5547 0.625C15.5547 1.08921 15.38 1.52871 15.0675 1.86942C13.8027 1.49046 12.4351 1.25 11 1.25C6.23257 1.25 2.20859 3.90129 0.234258 5.48171C-0.0402698 5.70146 -0.0791136 6.09538 0.147461 6.36159C0.374035 6.62779 0.780391 6.66542 1.05483 6.44567Z" fill="#444963"/>
  <path d="M18.6785 6.35983C16.1148 4.65245 13.4596 3.75 11 3.75C8.54038 3.75 5.88525 4.65245 3.32156 6.35979C1.40421 7.63675 0.215996 8.90266 0.166367 8.95596C-0.0553947 9.19391 -0.0553947 9.55612 0.166367 9.79408C0.215996 9.84733 1.40425 11.1133 3.32161 12.3902C5.88525 14.0976 8.54042 15 11 15C13.4596 15 16.1147 14.0975 18.6784 12.3902C20.5958 11.1133 21.784 9.84733 21.8337 9.79408C22.0554 9.55612 22.0554 9.19391 21.8337 8.95596C21.784 8.90266 20.5958 7.63675 18.6785 6.35983ZM15.5547 9.375C15.5547 11.7874 13.5114 13.75 11 13.75C8.51425 13.75 6.48828 11.7891 6.48828 9.375C6.48828 6.96262 8.51223 5 11 5C13.5093 5 15.5547 6.96087 15.5547 9.375ZM1.54841 9.37525C2.01218 8.93933 2.83387 8.21958 3.91015 7.48845C4.59627 7.02237 5.38591 6.5517 6.25221 6.147C5.58911 7.06133 5.19921 8.17479 5.19921 9.375C5.19921 10.5747 5.58872 11.6876 6.25126 12.6017C5.42415 12.2167 4.68806 11.7823 4.07726 11.377C2.92174 10.6102 2.03688 9.83516 1.54841 9.37525ZM15.8011 12.578C16.458 11.6683 16.8437 10.5643 16.8437 9.375C16.8437 8.18637 16.4584 7.08295 15.8022 6.17366C16.6074 6.55229 17.3253 6.9765 17.9228 7.373C19.0782 8.1397 19.963 8.91475 20.4517 9.37475C19.9639 9.83321 19.0802 10.6056 17.9208 11.375C17.2895 11.794 16.5764 12.212 15.8011 12.578Z" fill="#444963"/>
  <path d="M10.1667 7.68308C9.91504 7.439 9.50692 7.439 9.25521 7.68308C9.0035 7.92717 9.0035 8.32287 9.25521 8.56696L10.0885 9.375L9.25521 10.1831C9.0035 10.4272 9.0035 10.8229 9.25521 11.067C9.50688 11.311 9.915 11.3111 10.1667 11.067L11 10.2589L11.8333 11.067C12.085 11.311 12.4931 11.3111 12.7448 11.067C12.9965 10.8229 12.9965 10.4272 12.7448 10.1831L11.9115 9.375L12.7448 8.56692C12.9965 8.32283 12.9965 7.92712 12.7448 7.68304C12.4932 7.43895 12.0851 7.43895 11.8333 7.68304L11 8.49117L10.1667 7.68308Z" fill="#444963"/>
</svg>
