<svg width="13" height="14" viewBox="0 0 13 14" fill="none" xmlns="http://www.w3.org/2000/svg">
<g id="inbox-2-fill">
<path id="Vector" d="M3.33585 2.45508C3.09895 2.45508 2.89384 2.61962 2.84244 2.85088L1.83155 7.39989C1.82356 7.43588 1.81952 7.47262 1.81952 7.50952V11.0476C1.81952 11.3268 2.04582 11.5531 2.32496 11.5531H11.423C11.7021 11.5531 11.9284 11.3268 11.9284 11.0476V7.50952C11.9284 7.47262 11.9244 7.43588 11.9164 7.39989L10.9055 2.85088C10.8541 2.61962 10.649 2.45508 10.4121 2.45508H3.33585ZM10.7929 7.00408H8.39029C8.39029 7.84155 7.71143 8.52041 6.87396 8.52041C6.03649 8.52041 5.35763 7.84155 5.35763 7.00408H2.95506L3.7413 3.46597H10.0066L10.7929 7.00408Z" fill="#EADEF2"/>
</g>
</svg>
