<svg width="13" height="14" viewBox="0 0 13 14" fill="none" xmlns="http://www.w3.org/2000/svg">
<g id="lightbulb-line">
<path id="Vector" d="M5.70772 10.0344H6.22677V7.50715H7.23766V10.0344H7.7567C7.82342 9.42703 8.13335 8.92568 8.63652 8.37783C8.69318 8.31616 9.05665 7.94001 9.09976 7.88628C9.52823 7.35203 9.76488 6.69086 9.76488 5.99082C9.76488 4.31592 8.4071 2.95815 6.73221 2.95815C5.05732 2.95815 3.69955 4.31592 3.69955 5.99082C3.69955 6.69051 3.93596 7.35132 4.36401 7.88543C4.40719 7.93931 4.7715 8.31647 4.82747 8.37742C5.33095 8.92563 5.64097 9.42703 5.70772 10.0344ZM5.72132 11.0453V11.5507H7.7431V11.0453H5.72132ZM3.57518 8.51763C3.02046 7.82543 2.68866 6.94687 2.68866 5.99082C2.68866 3.75762 4.49902 1.94727 6.73221 1.94727C8.96542 1.94727 10.7758 3.75762 10.7758 5.99082C10.7758 6.94737 10.4436 7.82634 9.88836 8.51875C9.57483 8.90966 8.75399 9.52893 8.75399 10.2871V11.5507C8.75399 12.109 8.30141 12.5616 7.7431 12.5616H5.72132C5.16303 12.5616 4.71044 12.109 4.71044 11.5507V10.2871C4.71044 9.52893 3.88888 8.90905 3.57518 8.51763Z" fill="#EADEF2"/>
</g>
</svg>
