<svg width="13" height="14" viewBox="0 0 13 14" fill="none" xmlns="http://www.w3.org/2000/svg">
<g id="loop-left-line">
<path id="Vector" d="M6.79291 2.95815C5.40366 2.95815 4.17727 3.65883 3.4491 4.72721H4.77113V5.7381H1.73846V2.70543H2.74935V3.96872C3.67119 2.74165 5.13891 1.94727 6.79291 1.94727C9.58437 1.94727 11.8473 4.21021 11.8473 7.00171H10.8365C10.8365 4.76851 9.02611 2.95815 6.79291 2.95815ZM2.74935 7.00171C2.74935 9.23491 4.55971 11.0453 6.79291 11.0453C8.18217 11.0453 9.40853 10.3446 10.1367 9.27621H8.81468V8.26532H11.8473V11.298H10.8365V10.0347C9.91463 11.2617 8.44692 12.0561 6.79291 12.0561C4.00141 12.0561 1.73846 9.79317 1.73846 7.00171H2.74935Z" fill="#EADEF2"/>
</g>
</svg>
