<svg fill="#000000" xmlns="http://www.w3.org/2000/svg" viewBox="0 0 32 32" width="64px" height="64px"><path d="M 16 2 C 14.416667 2 13.101892 2.6297556 12.251953 3.5859375 C 11.402014 4.5421194 11 5.7777779 11 7 C 11 8.0568215 11.320353 9.1124493 11.951172 10 L 1 10 L 1 11 L 1 25 L 8.5878906 25 C 9.7771929 27.932591 12.652284 30 16 30 C 19.378243 30 22.242463 27.87368 23.412109 24.902344 C 24.308711 25.533813 25.325569 26 26.5 26 C 29.525577 26 32 23.525577 32 20.5 L 32 14 L 24 14 L 23 14 L 16 14 L 16 12 C 17.583333 12 18.898108 11.370244 19.748047 10.414062 C 20.597986 9.4578811 21 8.2222221 21 7 C 21 5.7777779 20.597986 4.5421194 19.748047 3.5859375 C 18.898108 2.6297556 17.583333 2 16 2 z M 16 4 C 17.083333 4 17.768559 4.3702444 18.251953 4.9140625 C 18.735347 5.4578806 19 6.2222221 19 7 C 19 7.7777779 18.735347 8.5421194 18.251953 9.0859375 C 17.768559 9.6297556 17.083333 10 16 10 C 14.916667 10 14.231441 9.6297556 13.748047 9.0859375 C 13.264653 8.5421194 13 7.7777779 13 7 C 13 6.2222221 13.264653 5.4578806 13.748047 4.9140625 C 14.231441 4.3702444 14.916667 4 16 4 z M 26.5 5 C 25.416667 5 24.476892 5.4422556 23.876953 6.1171875 C 23.277014 6.7921194 23 7.6527779 23 8.5 C 23 9.3472221 23.277014 10.207881 23.876953 10.882812 C 24.476892 11.557745 25.416667 12 26.5 12 C 27.583333 12 28.523108 11.557744 29.123047 10.882812 C 29.722986 10.207882 30 9.3472221 30 8.5 C 30 7.6527779 29.722986 6.7921194 29.123047 6.1171875 C 28.523108 5.4422556 27.583333 5 26.5 5 z M 26.5 7 C 27.083333 7 27.393559 7.1827444 27.626953 7.4453125 C 27.860347 7.7078806 28 8.0972221 28 8.5 C 28 8.9027779 27.860347 9.2921194 27.626953 9.5546875 C 27.393559 9.8172556 27.083333 10 26.5 10 C 25.916667 10 25.606441 9.8172556 25.373047 9.5546875 C 25.139653 9.2921194 25 8.9027779 25 8.5 C 25 8.0972221 25.139653 7.7078806 25.373047 7.4453125 C 25.606441 7.1827444 25.916667 7 26.5 7 z M 3 12 L 14 12 L 14 23 L 3 23 L 3 12 z M 5 14 L 5 16 L 7 16 L 7 21 L 9 21 L 9 16 L 11 16 L 11 14 L 5 14 z M 16 16 L 22 16 L 22 22 C 22 25.325562 19.325562 28 16 28 C 13.776108 28 11.861135 26.785839 10.824219 25 L 16 25 L 16 16 z M 24 16 L 30 16 L 30 20.5 C 30 22.444423 28.444423 24 26.5 24 C 25.425819 24 24.490167 23.508667 23.847656 22.753906 C 23.873436 22.493441 24 22.267056 24 22 L 24 16 z"/></svg>