<svg width="25" height="25" viewBox="0 0 25 25" fill="none" xmlns="http://www.w3.org/2000/svg">
<path d="M23.6641 21.6117V3.41992H9.51492V21.6117H15.5788V17.5691H17.6001V21.6117H23.6641ZM21.6428 19.5904H19.6214V15.5478H13.5575V19.5904H11.5362V5.44123H21.6428V19.5904ZM19.6214 13.5265H17.6001V11.5051H19.6214V13.5265ZM19.6214 9.48384H17.6001V7.46254H19.6214V9.48384ZM15.5788 13.5265H13.5575V11.5051H15.5788V13.5265ZM15.5788 9.48384H13.5575V7.46254H15.5788V9.48384ZM4.96698 16.0531L6.38189 14.6382L5.29544 13.5265H8.50426V11.5051H5.29544L6.38189 10.3934L4.96698 8.97852L1.42969 12.5158L4.96698 16.0531Z" fill="#3F51B5"/>
</svg>
