<svg width="32" height="32" viewBox="0 0 32 32" fill="none" xmlns="http://www.w3.org/2000/svg">
<path d="M31.9047 14.2607L30.0397 14.4669C30.3884 17.6219 29.6416 20.8471 27.9367 23.5484C26.2082 26.2871 23.5618 28.3629 20.4847 29.3936C19.0117 29.887 17.4984 30.1234 15.9997 30.1232C11.6734 30.123 7.47474 28.1522 4.76142 24.7076H6.61917V22.8312H1.60211V28.0794H3.47849V26.1031C5.26774 28.2816 7.63899 29.9804 10.3312 30.9826C12.1504 31.6599 14.0694 31.9994 15.9861 31.9994C17.7112 31.9993 19.4344 31.7242 21.0807 31.1729C24.5665 30.0052 27.5649 27.6532 29.5234 24.5499C31.4542 21.4906 32.3 17.8365 31.9047 14.2607Z" fill="#3db838"/>
<path d="M3.99692 8.5683C5.72523 5.77586 8.39517 3.66249 11.5149 2.61742C14.5529 1.59986 17.7489 1.63217 20.7575 2.71117C23.1069 3.5538 25.2015 5.01661 26.7993 6.90649L25.0112 6.90586L25.0105 8.78224L30.0832 8.78392V3.77049H28.2068V5.6658C26.4 3.53992 24.0382 1.89436 21.3909 0.944924C17.9818 -0.277639 14.3606 -0.314577 10.919 0.838236C7.3848 2.02205 4.35992 4.41661 2.40148 7.58074C0.468547 10.7037 -0.338203 14.4186 0.129797 18.041L1.99067 17.8007C1.57773 14.6045 2.29023 11.3257 3.99692 8.5683Z" fill="#3db838"/>
<path d="M22.6554 11.3362C23.1149 11.7848 23.1149 12.5119 22.6554 12.9602L14.7645 20.6638C14.305 21.1121 13.5605 21.1121 13.101 20.6638L9.3446 16.9964C8.88513 16.5481 8.88513 15.821 9.3446 15.3727C9.80384 14.9242 10.5486 14.9242 11.0079 15.3727L13.9326 18.2279L20.9919 11.3362C21.4514 10.8879 22.1962 10.8879 22.6554 11.3362Z" fill="#3db838"/>
</svg>
