<svg width="25" height="25" viewBox="0 0 25 25" fill="none" xmlns="http://www.w3.org/2000/svg">
<path d="M8.48955 19.1962L14.0519 20.7168L18.814 19.2362C18.7473 19.1161 18.6506 19.0128 18.5238 18.9261C18.3971 18.8394 18.2537 18.796 18.0936 18.796H14.0519C13.6918 18.796 13.405 18.7827 13.1916 18.756C12.9781 18.7293 12.758 18.676 12.5313 18.5959L10.6705 17.9757L11.1107 16.415L12.7314 16.9552C12.9581 17.0219 13.2249 17.0753 13.5317 17.1153C13.8385 17.1553 14.292 17.182 14.8923 17.1953C14.8923 17.0486 14.8489 16.9085 14.7622 16.7751C14.6755 16.6418 14.5721 16.5551 14.4521 16.515L9.7701 14.7943H8.48955V19.1962ZM3.6875 21.9974V13.1936H9.7701C9.86347 13.1936 9.95684 13.2036 10.0502 13.2236C10.1436 13.2436 10.2303 13.267 10.3103 13.2937L15.0123 15.0344C15.4525 15.1945 15.8093 15.4746 16.0828 15.8748C16.3562 16.2749 16.493 16.7151 16.493 17.1953H18.0936C18.7606 17.1953 19.3275 17.4154 19.7944 17.8556C20.2612 18.2958 20.4947 18.876 20.4947 19.5963V20.3967L14.0919 22.3975L8.48955 20.8369V21.9974H3.6875ZM5.28818 20.3967H6.88887V14.7943H5.28818V20.3967Z" fill="#3F51B5"/>
<path d="M17.977 7.4976C17.977 7.3544 17.9286 7.23436 17.8317 7.13748C17.7348 7.04061 17.6148 6.99218 17.4716 6.99218C17.3284 6.99218 17.2083 7.04061 17.1115 7.13748C17.0146 7.23436 16.9661 7.3544 16.9661 7.4976C16.9661 7.6408 17.0146 7.76084 17.1115 7.85771C17.2083 7.95459 17.3284 8.00302 17.4716 8.00302C17.6148 8.00302 17.7348 7.95459 17.8317 7.85771C17.9286 7.76084 17.977 7.6408 17.977 7.4976ZM15.9553 7.4976C15.9553 7.3544 15.9069 7.23436 15.81 7.13748C15.7131 7.04061 15.5931 6.99218 15.4499 6.99218C15.3067 6.99218 15.1866 7.04061 15.0898 7.13748C14.9929 7.23436 14.9444 7.3544 14.9444 7.4976C14.9444 7.6408 14.9929 7.76084 15.0898 7.85771C15.1866 7.95459 15.3067 8.00302 15.4499 8.00302C15.5931 8.00302 15.7131 7.95459 15.81 7.85771C15.9069 7.76084 15.9553 7.6408 15.9553 7.4976ZM13.9336 7.4976C13.9336 7.3544 13.8852 7.23436 13.7883 7.13748C13.6914 7.04061 13.5714 6.99218 13.4282 6.99218C13.285 6.99218 13.1649 7.04061 13.0681 7.13748C12.9712 7.23436 12.9227 7.3544 12.9227 7.4976C12.9227 7.6408 12.9712 7.76084 13.0681 7.85771C13.1649 7.95459 13.285 8.00302 13.4282 8.00302C13.5714 8.00302 13.6914 7.95459 13.7883 7.85771C13.8852 7.76084 13.9336 7.6408 13.9336 7.4976ZM19.4933 3.45421V11.541C19.4933 11.819 19.3943 12.0569 19.1963 12.2549C18.9984 12.4529 18.7604 12.5518 18.4824 12.5518H16.4607C16.4607 12.2739 16.3617 12.0359 16.1638 11.8379C15.9658 11.64 15.7279 11.541 15.4499 11.541C15.1719 11.541 14.9339 11.64 14.736 11.8379C14.538 12.0359 14.439 12.2739 14.439 12.5518H12.4173C12.1393 12.5518 11.9014 12.4529 11.7034 12.2549C11.5055 12.0569 11.4065 11.819 11.4065 11.541V3.45421C11.4065 3.17623 11.5055 2.93825 11.7034 2.7403C11.9014 2.54234 12.1393 2.44336 12.4173 2.44336L14.439 2.44336C14.439 2.72134 14.538 2.95931 14.736 3.15727C14.9339 3.35523 15.1719 3.45421 15.4499 3.45421C15.7279 3.45421 15.9658 3.35523 16.1638 3.15727C16.3617 2.95931 16.4607 2.72134 16.4607 2.44336L18.4824 2.44336C18.7604 2.44336 18.9984 2.54234 19.1963 2.7403C19.3943 2.93825 19.4933 3.17622 19.4933 3.45421ZM18.4824 3.45421H17.1936C17.0083 3.76589 16.7619 4.01228 16.4544 4.19339C16.1469 4.3745 15.8121 4.46506 15.4499 4.46506C15.0876 4.46506 14.7528 4.3745 14.4453 4.19339C14.1379 4.01228 13.8915 3.76589 13.7062 3.45421H12.4173V11.541L13.7062 11.541C13.8915 11.2293 14.1379 10.9829 14.4453 10.8018C14.7528 10.6207 15.0876 10.5301 15.4499 10.5301C15.8121 10.5301 16.1469 10.6207 16.4544 10.8018C16.7619 10.9829 17.0083 11.2293 17.1936 11.541H18.4824V3.45421Z" fill="#3F51B5"/>
</svg>
