<svg width="192" height="192" viewBox="0 0 192 192" fill="none" xmlns="http://www.w3.org/2000/svg">
<rect width="192" height="192" fill="#3F51B5"/>
<path d="M146 96.3684C146 70.2105 124.789 49 98.6316 49H61.7895C53.079 49 46 56.0789 46 64.7895V78.579C46 79.6835 46.8954 80.5789 48 80.5789L86.1053 80.5789C87.2098 80.5789 88.1053 79.6835 88.1053 78.5789V59.5263H98.6316C118.974 59.5263 135.474 76.0263 135.474 96.3684C135.474 116.711 118.974 133.211 98.6316 133.211H88.1053V114.158C88.1053 113.053 87.2098 112.158 86.1053 112.158L48 112.158C46.8954 112.158 46 113.053 46 114.158V127.947C46 136.658 53.079 143.737 61.7895 143.737H98.6316C124.789 143.737 146 122.526 146 96.3684Z" fill="white"/>
</svg>
