<svg width="428" height="428" viewBox="0 0 428 428" fill="none" xmlns="http://www.w3.org/2000/svg">
<g style="mix-blend-mode:screen" opacity="0.1">
<path d="M60.5059 367.536C-13.7715 293.258 -19.4829 178.512 47.7504 111.279L142.446 16.5836C164.834 -5.80502 203.13 -3.8988 227.865 20.8353L271.649 64.6201C272.229 65.2001 272.251 66.1204 271.696 66.6749L165.481 172.89C164.927 173.445 164.006 173.423 163.426 172.843L104.697 114.113L77.6407 141.169C25.3558 193.454 29.7987 282.717 87.5617 340.48C145.325 398.243 234.587 402.686 286.872 350.401L313.928 323.345L255.198 264.615C254.618 264.035 254.597 263.115 255.152 262.56L361.367 156.345C361.921 155.791 362.841 155.812 363.421 156.392L407.206 200.177C431.94 224.911 433.847 263.207 411.458 285.596L316.763 380.291C249.529 447.524 134.783 441.813 60.5059 367.536Z" fill="url(#paint0_linear_473_1072)"/>
</g>
<defs>
<linearGradient id="paint0_linear_473_1072" x1="-27.9509" y1="606.791" x2="381.51" y2="78.7277" gradientUnits="userSpaceOnUse">
<stop offset="0.179343" stop-color="#1C286D"/>
<stop offset="0.668782" stop-color="#8A96D9"/>
<stop offset="0.907667" stop-color="#D5DBFC"/>
</linearGradient>
</defs>
</svg>
