<svg width="304" height="78" viewBox="0 0 304 78" fill="none" xmlns="http://www.w3.org/2000/svg">
<rect x="0.5" y="0.5" width="303" height="77" rx="3.5" fill="#F9F9F9"/>
<rect x="0.5" y="0.5" width="303" height="77" rx="3.5" stroke="#D3D3D3"/>
<g clip-path="url(#clip0_2091_837)">
<path d="M275.617 27.062C275.617 26.8296 275.609 26.6012 275.602 26.3727V13.316L272.023 16.9277C269.094 13.3081 264.637 11 259.645 11C254.449 11 249.832 13.5011 246.914 17.3728L252.781 23.3517C253.355 22.2804 254.172 21.3588 255.156 20.6616C256.18 19.8542 257.633 19.1964 259.641 19.1964C259.883 19.1964 260.07 19.224 260.207 19.2791C262.695 19.4761 264.852 20.8625 266.121 22.8712L261.969 27.0581C267.23 27.0384 273.176 27.0265 275.617 27.062Z" fill="#1C3AA9"/>
<path d="M259.551 11C259.32 11 259.094 11.0079 258.867 11.0158H245.914L249.496 14.6236C245.91 17.5816 243.617 22.0756 243.617 27.1093C243.617 32.3477 246.098 37.0033 249.938 39.9455L255.867 34.0295C254.805 33.4506 253.891 32.6274 253.199 31.6348C252.398 30.6029 251.746 29.1377 251.746 27.1132C251.746 26.869 251.773 26.6799 251.828 26.5421C252.023 24.0331 253.398 21.859 255.391 20.5789L259.543 24.7657C259.527 19.4564 259.512 13.4656 259.551 11Z" fill="#4285F4"/>
<path d="M243.621 27.1094C243.621 27.3418 243.629 27.5702 243.637 27.7986V40.8554L247.215 37.2476C250.145 40.8633 254.602 43.1714 259.594 43.1714C264.789 43.1714 269.406 40.6703 272.324 36.7986L266.457 30.8196C265.883 31.8909 265.066 32.8126 264.082 33.5098C263.059 34.3172 261.605 34.9749 259.598 34.9749C259.355 34.9749 259.168 34.9474 259.031 34.8922C256.543 34.6953 254.387 33.3089 253.117 31.3001L257.27 27.1133C252.008 27.133 246.062 27.1448 243.621 27.1094Z" fill="#ABABAB"/>
<path d="M246.316 49.4102C245.926 49.4102 245.578 49.485 245.27 49.6347C244.961 49.7804 244.699 49.9891 244.484 50.257C244.273 50.5287 244.109 50.8557 243.996 51.2416C243.887 51.6237 243.832 52.053 243.832 52.5257V53.8885C243.832 54.365 243.887 54.7944 243.996 55.1764C244.109 55.5585 244.27 55.8854 244.48 56.1571C244.687 56.4289 244.941 56.6337 245.234 56.7795C245.531 56.9252 245.863 56.9961 246.23 56.9961C246.609 56.9961 246.941 56.9409 247.227 56.8307C247.516 56.7204 247.758 56.5589 247.949 56.3501C248.145 56.1374 248.293 55.8814 248.398 55.5782C248.504 55.2788 248.57 54.9361 248.59 54.5541H247.66C247.637 54.8495 247.598 55.1016 247.539 55.3103C247.48 55.5151 247.398 55.6884 247.289 55.8224C247.184 55.9563 247.039 56.0508 246.867 56.1178C246.695 56.1768 246.484 56.2083 246.234 56.2083C245.965 56.2083 245.738 56.1493 245.551 56.0311C245.363 55.909 245.211 55.7436 245.094 55.5348C244.98 55.3261 244.895 55.0779 244.844 54.7983C244.793 54.5186 244.77 54.2154 244.77 53.8885V52.5138C244.77 52.1672 244.801 51.8482 244.859 51.5646C244.922 51.281 245.02 51.0408 245.145 50.8399C245.273 50.639 245.434 50.4854 245.629 50.3791C245.824 50.2688 246.055 50.2137 246.324 50.2137C246.551 50.2137 246.742 50.2491 246.902 50.3161C247.062 50.3791 247.199 50.4815 247.305 50.6193C247.41 50.7533 247.492 50.9266 247.551 51.1353C247.609 51.3441 247.645 51.5961 247.668 51.8876H248.598C248.582 51.4898 248.52 51.1353 248.41 50.8281C248.305 50.5209 248.152 50.2609 247.961 50.0522C247.77 49.8434 247.535 49.6819 247.262 49.5756C246.984 49.4653 246.672 49.4102 246.316 49.4102ZM269.039 49.4102C268.648 49.4102 268.301 49.485 267.992 49.6347C267.684 49.7804 267.422 49.9891 267.207 50.257C266.996 50.5287 266.832 50.8557 266.719 51.2416C266.609 51.6237 266.555 52.053 266.555 52.5257V53.8885C266.555 54.365 266.609 54.7944 266.719 55.1764C266.832 55.5585 266.996 55.8854 267.203 56.1571C267.41 56.4289 267.664 56.6337 267.957 56.7795C268.254 56.9252 268.586 56.9961 268.953 56.9961C269.332 56.9961 269.664 56.9409 269.949 56.8307C270.238 56.7204 270.48 56.5589 270.676 56.3501C270.871 56.1374 271.02 55.8814 271.125 55.5782C271.23 55.2788 271.297 54.9361 271.316 54.5541H270.387C270.363 54.8495 270.324 55.1016 270.266 55.3103C270.207 55.5151 270.125 55.6884 270.016 55.8224C269.906 55.9563 269.77 56.0508 269.594 56.1178C269.422 56.1768 269.211 56.2083 268.961 56.2083C268.691 56.2083 268.465 56.1493 268.277 56.0311C268.09 55.909 267.937 55.7436 267.82 55.5348C267.707 55.3261 267.621 55.0779 267.57 54.7983C267.52 54.5186 267.496 54.2154 267.496 53.8885V52.5138C267.496 52.1672 267.527 51.8482 267.586 51.5646C267.648 51.281 267.746 51.0408 267.871 50.8399C267.996 50.639 268.16 50.4854 268.355 50.3791C268.551 50.2688 268.781 50.2137 269.051 50.2137C269.277 50.2137 269.469 50.2491 269.629 50.3161C269.789 50.3791 269.926 50.4815 270.031 50.6193C270.141 50.7533 270.223 50.9266 270.277 51.1353C270.332 51.3441 270.371 51.5961 270.391 51.8876H271.32C271.305 51.4898 271.242 51.1353 271.133 50.8281C271.023 50.5209 270.875 50.2609 270.684 50.0522C270.492 49.8434 270.258 49.6819 269.984 49.5756C269.707 49.4653 269.395 49.4102 269.039 49.4102ZM251.617 49.5126L249.258 56.9016H250.203L250.773 54.9755H253.25L253.828 56.9016H254.773L252.41 49.5126H251.617ZM255.77 49.5126V56.9016H256.691V54.0106H258.105C258.457 54.0106 258.77 53.9593 259.043 53.8648C259.316 53.7624 259.543 53.6167 259.727 53.4276C259.914 53.2386 260.055 53.0062 260.148 52.7265C260.246 52.4469 260.293 52.1279 260.293 51.7734C260.293 51.4465 260.242 51.1432 260.148 50.8714C260.055 50.5957 259.914 50.3554 259.73 50.1546C259.547 49.9537 259.316 49.7961 259.039 49.6819C258.766 49.5716 258.457 49.5126 258.102 49.5126H255.77ZM261 49.5126V50.3161H262.922V56.9016H263.844V50.3121H265.77V49.5086H261V49.5126ZM272.559 49.5126V56.9016H273.48V53.4867H276.43V56.9016H277.355V49.5126H276.43V52.6871H273.48V49.5126H272.559ZM280.844 49.5126L278.484 56.9016H279.43L280 54.9755H282.477L283.055 56.9016H284L281.637 49.5126H280.844ZM256.691 50.3121H258.105C258.332 50.3121 258.52 50.3515 258.68 50.4342C258.84 50.5169 258.973 50.6233 259.07 50.7572C259.176 50.8911 259.25 51.0487 259.297 51.2298C259.348 51.4071 259.371 51.5883 259.371 51.7773C259.371 51.9861 259.348 52.1791 259.297 52.3563C259.25 52.5296 259.176 52.6793 259.07 52.8093C258.969 52.9353 258.84 53.0338 258.68 53.1047C258.523 53.1755 258.332 53.211 258.105 53.211H256.691V50.3121ZM252.012 50.8123L253.012 54.172H251.016L252.012 50.8123ZM281.238 50.8123L282.238 54.172H280.238L281.238 50.8123ZM237.891 51.3086C237.66 51.3086 237.461 51.3677 237.293 51.4858C237.129 51.604 236.992 51.7655 236.879 51.9664L236.863 51.4071H236V56.8976H236.891V52.9707C236.973 52.7384 237.094 52.5532 237.246 52.4193C237.402 52.2854 237.602 52.2145 237.844 52.2145C237.922 52.2145 237.988 52.2184 238.051 52.2263C238.109 52.2303 238.176 52.2381 238.246 52.25L238.242 51.3756C238.23 51.3677 238.207 51.3637 238.176 51.3559C238.148 51.3441 238.117 51.3362 238.086 51.3322C238.055 51.3283 238.016 51.3204 237.98 51.3165C237.949 51.3125 237.918 51.3086 237.891 51.3086ZM240.887 51.3086C240.629 51.3086 240.379 51.3559 240.137 51.4465C239.895 51.5371 239.68 51.6867 239.492 51.8994C239.309 52.1042 239.16 52.376 239.043 52.7108C238.93 53.0416 238.871 53.4513 238.871 53.9318V54.5502C238.871 54.9677 238.918 55.334 239.016 55.6412C239.113 55.9484 239.254 56.2044 239.434 56.4092C239.617 56.6101 239.84 56.7558 240.102 56.8543C240.363 56.9528 240.656 57 240.98 57C241.215 57 241.426 56.9764 241.609 56.9291C241.797 56.8819 241.965 56.8188 242.109 56.7479C242.254 56.6692 242.379 56.5825 242.48 56.4841C242.586 56.3856 242.672 56.2832 242.746 56.1808L242.281 55.6136C242.207 55.7042 242.129 55.7908 242.043 55.8657C241.961 55.9405 241.867 56.0075 241.766 56.0626C241.664 56.1178 241.555 56.1611 241.434 56.1887C241.312 56.2202 241.176 56.2359 241.027 56.2359C240.613 56.2359 240.297 56.102 240.078 55.8342C239.859 55.5663 239.75 55.141 239.75 54.5502V54.4241H242.789V53.9003C242.789 53.4828 242.754 53.1125 242.684 52.7896C242.613 52.4666 242.5 52.1988 242.348 51.9782C242.191 51.7576 241.996 51.5922 241.754 51.4819C241.52 51.3637 241.227 51.3086 240.887 51.3086ZM240.887 52.0806C241.082 52.0806 241.242 52.116 241.371 52.1869C241.5 52.2578 241.598 52.3563 241.672 52.4863C241.75 52.6163 241.805 52.7699 241.836 52.9471C241.871 53.1243 241.895 53.3173 241.906 53.53V53.6521H239.766C239.777 53.3449 239.816 53.0889 239.875 52.8841C239.934 52.6832 240.016 52.5217 240.113 52.4036C240.215 52.2815 240.328 52.1988 240.461 52.1515C240.59 52.1042 240.73 52.0806 240.887 52.0806Z" fill="#A6A6A6"/>
</g>
<path d="M232.103 65.4907H230.393V64.8008H232.103C232.434 64.8008 232.702 64.748 232.907 64.6426C233.112 64.5371 233.261 64.3906 233.355 64.2031C233.452 64.0156 233.5 63.8018 233.5 63.5615C233.5 63.3418 233.452 63.1353 233.355 62.9419C233.261 62.7485 233.112 62.5933 232.907 62.4761C232.702 62.356 232.434 62.2959 232.103 62.2959H230.591V68H229.743V61.6016H232.103C232.586 61.6016 232.995 61.6851 233.329 61.8521C233.663 62.019 233.916 62.2505 234.089 62.5464C234.262 62.8394 234.348 63.1748 234.348 63.5527C234.348 63.9629 234.262 64.313 234.089 64.603C233.916 64.8931 233.663 65.1143 233.329 65.2666C232.995 65.416 232.586 65.4907 232.103 65.4907ZM236.11 63.9922V68H235.297V63.2451H236.088L236.11 63.9922ZM237.596 63.2188L237.591 63.9746C237.524 63.96 237.459 63.9512 237.398 63.9482C237.339 63.9424 237.272 63.9395 237.196 63.9395C237.008 63.9395 236.843 63.9688 236.699 64.0273C236.556 64.0859 236.434 64.168 236.334 64.2734C236.235 64.3789 236.156 64.5049 236.097 64.6514C236.042 64.7949 236.005 64.9531 235.987 65.126L235.759 65.2578C235.759 64.9707 235.787 64.7012 235.842 64.4492C235.901 64.1973 235.99 63.9746 236.11 63.7812C236.23 63.585 236.383 63.4326 236.567 63.3242C236.755 63.2129 236.978 63.1572 237.235 63.1572C237.294 63.1572 237.361 63.1646 237.438 63.1792C237.514 63.1909 237.566 63.2041 237.596 63.2188ZM239.23 63.2451V68H238.413V63.2451H239.23ZM238.352 61.9839C238.352 61.8521 238.391 61.7407 238.47 61.6499C238.552 61.5591 238.672 61.5137 238.831 61.5137C238.986 61.5137 239.104 61.5591 239.187 61.6499C239.271 61.7407 239.314 61.8521 239.314 61.9839C239.314 62.1099 239.271 62.2183 239.187 62.3091C239.104 62.397 238.986 62.4409 238.831 62.4409C238.672 62.4409 238.552 62.397 238.47 62.3091C238.391 62.2183 238.352 62.1099 238.352 61.9839ZM241.981 67.2661L243.282 63.2451H244.113L242.403 68H241.858L241.981 67.2661ZM240.896 63.2451L242.236 67.2881L242.329 68H241.784L240.061 63.2451H240.896ZM247.628 67.187V64.7393C247.628 64.5518 247.59 64.3892 247.514 64.2515C247.441 64.1108 247.33 64.0024 247.18 63.9263C247.031 63.8501 246.846 63.812 246.626 63.812C246.421 63.812 246.241 63.8472 246.086 63.9175C245.934 63.9878 245.813 64.0801 245.726 64.1943C245.641 64.3086 245.598 64.4316 245.598 64.5635H244.785C244.785 64.3936 244.829 64.2251 244.917 64.0581C245.005 63.8911 245.131 63.7402 245.295 63.6055C245.462 63.4678 245.661 63.3594 245.893 63.2803C246.127 63.1982 246.388 63.1572 246.675 63.1572C247.021 63.1572 247.325 63.2158 247.589 63.333C247.855 63.4502 248.063 63.6274 248.213 63.8647C248.365 64.0991 248.441 64.3936 248.441 64.748V66.9629C248.441 67.1211 248.455 67.2896 248.481 67.4683C248.51 67.647 248.553 67.8008 248.608 67.9297V68H247.76C247.719 67.9062 247.687 67.7817 247.664 67.6265C247.64 67.4683 247.628 67.3218 247.628 67.187ZM247.769 65.1172L247.778 65.6885H246.956C246.725 65.6885 246.518 65.7075 246.336 65.7456C246.155 65.7808 246.002 65.835 245.879 65.9082C245.756 65.9814 245.663 66.0737 245.598 66.1851C245.534 66.2935 245.501 66.4209 245.501 66.5674C245.501 66.7168 245.535 66.853 245.603 66.9761C245.67 67.0991 245.771 67.1973 245.906 67.2705C246.043 67.3408 246.212 67.376 246.411 67.376C246.66 67.376 246.88 67.3232 247.07 67.2178C247.261 67.1123 247.412 66.9834 247.523 66.8311C247.637 66.6787 247.699 66.5308 247.708 66.3872L248.055 66.7783C248.034 66.9014 247.979 67.0376 247.888 67.187C247.797 67.3364 247.675 67.48 247.523 67.6177C247.374 67.7524 247.195 67.8652 246.987 67.9561C246.782 68.0439 246.55 68.0879 246.292 68.0879C245.97 68.0879 245.688 68.0249 245.444 67.8989C245.204 67.7729 245.017 67.6045 244.882 67.3936C244.75 67.1797 244.684 66.9409 244.684 66.6772C244.684 66.4224 244.734 66.1982 244.833 66.0049C244.933 65.8086 245.077 65.646 245.264 65.5171C245.452 65.3853 245.677 65.2856 245.941 65.2183C246.205 65.1509 246.499 65.1172 246.824 65.1172H247.769ZM251.623 67.4199C251.816 67.4199 251.995 67.3804 252.159 67.3013C252.323 67.2222 252.458 67.1138 252.563 66.9761C252.669 66.8354 252.729 66.6758 252.744 66.4971H253.517C253.502 66.7783 253.407 67.0405 253.231 67.2837C253.059 67.5239 252.832 67.7188 252.55 67.8682C252.269 68.0146 251.96 68.0879 251.623 68.0879C251.266 68.0879 250.954 68.0249 250.687 67.8989C250.423 67.7729 250.204 67.6001 250.028 67.3804C249.855 67.1606 249.725 66.9087 249.637 66.6245C249.552 66.3374 249.509 66.0342 249.509 65.7148V65.5303C249.509 65.2109 249.552 64.9092 249.637 64.625C249.725 64.3379 249.855 64.0845 250.028 63.8647C250.204 63.645 250.423 63.4722 250.687 63.3462C250.954 63.2202 251.266 63.1572 251.623 63.1572C251.995 63.1572 252.32 63.2334 252.599 63.3857C252.877 63.5352 253.095 63.7402 253.253 64.001C253.415 64.2588 253.502 64.5518 253.517 64.8799H252.744C252.729 64.6836 252.673 64.5063 252.577 64.3481C252.483 64.1899 252.354 64.064 252.19 63.9702C252.029 63.8735 251.84 63.8252 251.623 63.8252C251.374 63.8252 251.165 63.875 250.995 63.9746C250.828 64.0713 250.694 64.2031 250.595 64.3701C250.498 64.5342 250.428 64.7173 250.384 64.9194C250.343 65.1187 250.322 65.3223 250.322 65.5303V65.7148C250.322 65.9229 250.343 66.1279 250.384 66.3301C250.425 66.5322 250.494 66.7153 250.59 66.8794C250.69 67.0435 250.823 67.1753 250.99 67.2749C251.16 67.3716 251.371 67.4199 251.623 67.4199ZM255.767 67.5078L257.09 63.2451H257.96L256.053 68.7339C256.009 68.8511 255.95 68.9771 255.877 69.1118C255.807 69.2495 255.716 69.3799 255.604 69.5029C255.493 69.626 255.358 69.7256 255.2 69.8018C255.045 69.8809 254.859 69.9204 254.642 69.9204C254.578 69.9204 254.496 69.9116 254.396 69.894C254.296 69.8765 254.226 69.8618 254.185 69.8501L254.181 69.1909C254.204 69.1938 254.241 69.1968 254.291 69.1997C254.343 69.2056 254.38 69.2085 254.4 69.2085C254.585 69.2085 254.742 69.1836 254.871 69.1338C255 69.0869 255.108 69.0063 255.196 68.8921C255.287 68.7808 255.364 68.627 255.429 68.4307L255.767 67.5078ZM254.796 63.2451L256.031 66.9365L256.242 67.7935L255.657 68.0923L253.908 63.2451H254.796ZM262.618 64.9458V65.6138H260.474V64.9458H262.618ZM267.958 61.6016V68H267.123V61.6016H267.958ZM270.014 61.6016V62.2959H265.07V61.6016H270.014ZM272.374 68.0879C272.043 68.0879 271.743 68.0322 271.473 67.9209C271.207 67.8066 270.977 67.647 270.783 67.4419C270.593 67.2368 270.446 66.9937 270.344 66.7124C270.241 66.4312 270.19 66.1235 270.19 65.7896V65.605C270.19 65.2183 270.247 64.874 270.361 64.5723C270.476 64.2676 270.631 64.0098 270.827 63.7988C271.023 63.5879 271.246 63.4282 271.495 63.3198C271.744 63.2114 272.002 63.1572 272.269 63.1572C272.608 63.1572 272.901 63.2158 273.147 63.333C273.396 63.4502 273.6 63.6143 273.758 63.8252C273.917 64.0332 274.034 64.2793 274.11 64.5635C274.186 64.8447 274.224 65.1523 274.224 65.4863V65.8511H270.673V65.1875H273.411V65.126C273.399 64.915 273.355 64.71 273.279 64.5107C273.206 64.3115 273.089 64.1475 272.928 64.0186C272.767 63.8896 272.547 63.8252 272.269 63.8252C272.084 63.8252 271.914 63.8647 271.759 63.9438C271.604 64.02 271.47 64.1343 271.359 64.2866C271.248 64.439 271.161 64.625 271.1 64.8447C271.038 65.0645 271.007 65.3179 271.007 65.605V65.7896C271.007 66.0151 271.038 66.2275 271.1 66.4268C271.164 66.623 271.256 66.7959 271.376 66.9453C271.5 67.0947 271.647 67.2119 271.82 67.2969C271.996 67.3818 272.195 67.4243 272.418 67.4243C272.705 67.4243 272.948 67.3657 273.147 67.2485C273.347 67.1313 273.521 66.9746 273.67 66.7783L274.163 67.1694C274.06 67.3247 273.93 67.4727 273.771 67.6133C273.613 67.7539 273.418 67.8682 273.187 67.9561C272.958 68.0439 272.688 68.0879 272.374 68.0879ZM275.986 63.9922V68H275.173V63.2451H275.964L275.986 63.9922ZM277.472 63.2188L277.467 63.9746C277.4 63.96 277.335 63.9512 277.274 63.9482C277.215 63.9424 277.148 63.9395 277.072 63.9395C276.884 63.9395 276.719 63.9688 276.575 64.0273C276.432 64.0859 276.31 64.168 276.21 64.2734C276.111 64.3789 276.032 64.5049 275.973 64.6514C275.917 64.7949 275.881 64.9531 275.863 65.126L275.635 65.2578C275.635 64.9707 275.663 64.7012 275.718 64.4492C275.777 64.1973 275.866 63.9746 275.986 63.7812C276.106 63.585 276.259 63.4326 276.443 63.3242C276.631 63.2129 276.854 63.1572 277.111 63.1572C277.17 63.1572 277.237 63.1646 277.313 63.1792C277.39 63.1909 277.442 63.2041 277.472 63.2188ZM279.032 64.1899V68H278.214V63.2451H278.988L279.032 64.1899ZM278.865 65.4424L278.487 65.4292C278.49 65.104 278.532 64.8037 278.614 64.5283C278.696 64.25 278.818 64.0083 278.979 63.8032C279.14 63.5981 279.341 63.4399 279.581 63.3286C279.821 63.2144 280.1 63.1572 280.416 63.1572C280.639 63.1572 280.844 63.1895 281.031 63.2539C281.219 63.3154 281.381 63.4136 281.519 63.5483C281.657 63.6831 281.764 63.856 281.84 64.0669C281.916 64.2778 281.954 64.5327 281.954 64.8315V68H281.141V64.8711C281.141 64.6221 281.099 64.4229 281.014 64.2734C280.932 64.124 280.814 64.0156 280.662 63.9482C280.51 63.8779 280.331 63.8428 280.126 63.8428C279.886 63.8428 279.685 63.8853 279.524 63.9702C279.363 64.0552 279.234 64.1724 279.137 64.3218C279.041 64.4712 278.97 64.6426 278.926 64.8359C278.885 65.0264 278.865 65.2285 278.865 65.4424ZM281.945 64.9941L281.4 65.1611C281.403 64.9004 281.446 64.6499 281.528 64.4097C281.613 64.1694 281.734 63.9556 281.893 63.7681C282.054 63.5806 282.251 63.4326 282.486 63.3242C282.72 63.2129 282.988 63.1572 283.29 63.1572C283.545 63.1572 283.771 63.1909 283.967 63.2583C284.166 63.3257 284.333 63.4297 284.468 63.5703C284.605 63.708 284.709 63.8853 284.78 64.1021C284.85 64.3188 284.885 64.5767 284.885 64.8755V68H284.068V64.8667C284.068 64.6001 284.025 64.3936 283.94 64.2471C283.858 64.0977 283.741 63.9937 283.589 63.9351C283.439 63.8735 283.261 63.8428 283.053 63.8428C282.874 63.8428 282.716 63.8735 282.578 63.9351C282.44 63.9966 282.325 64.0815 282.231 64.1899C282.137 64.2954 282.065 64.417 282.016 64.5547C281.969 64.6924 281.945 64.8389 281.945 64.9941ZM288.884 66.7388C288.884 66.6216 288.858 66.5132 288.805 66.4136C288.755 66.311 288.651 66.2188 288.493 66.1367C288.338 66.0518 288.104 65.9785 287.79 65.917C287.526 65.8613 287.288 65.7954 287.074 65.7192C286.863 65.6431 286.683 65.5508 286.533 65.4424C286.387 65.334 286.274 65.2065 286.195 65.0601C286.116 64.9136 286.076 64.7422 286.076 64.5459C286.076 64.3584 286.117 64.1812 286.199 64.0142C286.284 63.8472 286.403 63.6992 286.555 63.5703C286.71 63.4414 286.896 63.3403 287.113 63.2671C287.33 63.1938 287.572 63.1572 287.838 63.1572C288.219 63.1572 288.544 63.2246 288.814 63.3594C289.083 63.4941 289.29 63.6743 289.434 63.8999C289.577 64.1226 289.649 64.3701 289.649 64.6426H288.836C288.836 64.5107 288.796 64.3833 288.717 64.2603C288.641 64.1343 288.528 64.0303 288.379 63.9482C288.232 63.8662 288.052 63.8252 287.838 63.8252C287.613 63.8252 287.43 63.8604 287.289 63.9307C287.151 63.998 287.05 64.0845 286.986 64.1899C286.924 64.2954 286.894 64.4067 286.894 64.5239C286.894 64.6118 286.908 64.6909 286.938 64.7612C286.97 64.8286 287.025 64.8916 287.104 64.9502C287.184 65.0059 287.295 65.0586 287.438 65.1084C287.582 65.1582 287.765 65.208 287.988 65.2578C288.377 65.3457 288.698 65.4512 288.95 65.5742C289.202 65.6973 289.39 65.8481 289.513 66.0269C289.636 66.2056 289.697 66.4224 289.697 66.6772C289.697 66.8853 289.653 67.0757 289.565 67.2485C289.48 67.4214 289.356 67.5708 289.192 67.6968C289.031 67.8198 288.837 67.9165 288.612 67.9868C288.389 68.0542 288.139 68.0879 287.86 68.0879C287.441 68.0879 287.087 68.0132 286.797 67.8638C286.507 67.7144 286.287 67.521 286.138 67.2837C285.988 67.0464 285.914 66.7959 285.914 66.5322H286.731C286.743 66.7549 286.807 66.9321 286.924 67.064C287.042 67.1929 287.185 67.2852 287.355 67.3408C287.525 67.3936 287.693 67.4199 287.86 67.4199C288.083 67.4199 288.269 67.3906 288.418 67.332C288.571 67.2734 288.687 67.1929 288.766 67.0903C288.845 66.9878 288.884 66.8706 288.884 66.7388Z" fill="black"/>
<path d="M55.5703 34.0469V44H54.251V34.0469H55.5703ZM59.0566 33.5V34.375C59.0566 34.6484 59.0088 34.9378 58.9131 35.2432C58.8219 35.5439 58.6875 35.8356 58.5098 36.1182C58.332 36.3962 58.1178 36.64 57.8672 36.8496L57.1426 36.3506C57.3568 36.0498 57.5186 35.7422 57.6279 35.4277C57.7419 35.1087 57.7988 34.7646 57.7988 34.3955V33.5H59.0566ZM61.7021 38.0732V44H60.4307V36.6035H61.6338L61.7021 38.0732ZM61.4424 40.0215L60.8545 40.001C60.859 39.4951 60.9251 39.028 61.0527 38.5996C61.1803 38.1667 61.3695 37.7907 61.6201 37.4717C61.8708 37.1527 62.1829 36.9066 62.5566 36.7334C62.9303 36.5557 63.3633 36.4668 63.8555 36.4668C64.2018 36.4668 64.5208 36.5169 64.8125 36.6172C65.1042 36.7129 65.3571 36.8656 65.5713 37.0752C65.7855 37.2848 65.9518 37.5537 66.0703 37.8818C66.1888 38.21 66.248 38.6064 66.248 39.0713V44H64.9834V39.1328C64.9834 38.7454 64.9173 38.4355 64.7852 38.2031C64.6576 37.9707 64.4753 37.8021 64.2383 37.6973C64.0013 37.5879 63.7233 37.5332 63.4043 37.5332C63.0306 37.5332 62.7184 37.5993 62.4678 37.7314C62.2171 37.8636 62.0166 38.0459 61.8662 38.2783C61.7158 38.5107 61.6064 38.7773 61.5381 39.0781C61.4743 39.3743 61.4424 39.6888 61.4424 40.0215ZM66.2344 39.3242L65.3867 39.584C65.3913 39.1784 65.4574 38.7887 65.585 38.415C65.7171 38.0413 65.9062 37.7087 66.1523 37.417C66.403 37.1253 66.7106 36.8952 67.0752 36.7266C67.4398 36.5534 67.8568 36.4668 68.3262 36.4668C68.7227 36.4668 69.0736 36.5192 69.3789 36.624C69.6888 36.7288 69.9486 36.8906 70.1582 37.1094C70.3724 37.3236 70.5342 37.5993 70.6436 37.9365C70.7529 38.2738 70.8076 38.6748 70.8076 39.1396V44H69.5361V39.126C69.5361 38.7113 69.4701 38.39 69.3379 38.1621C69.2103 37.9297 69.028 37.7679 68.791 37.6768C68.5586 37.5811 68.2806 37.5332 67.957 37.5332C67.679 37.5332 67.4329 37.5811 67.2188 37.6768C67.0046 37.7725 66.8245 37.9046 66.6787 38.0732C66.5329 38.2373 66.4212 38.4264 66.3438 38.6406C66.2708 38.8548 66.2344 39.0827 66.2344 39.3242ZM77.459 38.1826V44H76.1943V36.6035H77.3906L77.459 38.1826ZM77.1582 40.0215L76.6318 40.001C76.6364 39.4951 76.7116 39.028 76.8574 38.5996C77.0033 38.1667 77.2083 37.7907 77.4727 37.4717C77.737 37.1527 78.0514 36.9066 78.416 36.7334C78.7852 36.5557 79.193 36.4668 79.6396 36.4668C80.0042 36.4668 80.3324 36.5169 80.624 36.6172C80.9157 36.7129 81.1641 36.8678 81.3691 37.082C81.5788 37.2962 81.7383 37.5742 81.8477 37.916C81.957 38.2533 82.0117 38.6657 82.0117 39.1533V44H80.7402V39.1396C80.7402 38.7523 80.6833 38.4424 80.5693 38.21C80.4554 37.973 80.2891 37.8021 80.0703 37.6973C79.8516 37.5879 79.5827 37.5332 79.2637 37.5332C78.9492 37.5332 78.6621 37.5993 78.4023 37.7314C78.1471 37.8636 77.9261 38.0459 77.7393 38.2783C77.557 38.5107 77.4134 38.7773 77.3086 39.0781C77.2083 39.3743 77.1582 39.6888 77.1582 40.0215ZM83.5977 40.3838V40.2266C83.5977 39.6934 83.6751 39.1989 83.8301 38.7432C83.985 38.2829 84.2083 37.8841 84.5 37.5469C84.7917 37.2051 85.1449 36.9408 85.5596 36.7539C85.9743 36.5625 86.4391 36.4668 86.9541 36.4668C87.4736 36.4668 87.9408 36.5625 88.3555 36.7539C88.7747 36.9408 89.1302 37.2051 89.4219 37.5469C89.7181 37.8841 89.9437 38.2829 90.0986 38.7432C90.2536 39.1989 90.3311 39.6934 90.3311 40.2266V40.3838C90.3311 40.917 90.2536 41.4115 90.0986 41.8672C89.9437 42.3229 89.7181 42.7217 89.4219 43.0635C89.1302 43.4007 88.777 43.665 88.3623 43.8564C87.9521 44.0433 87.4873 44.1367 86.9678 44.1367C86.4482 44.1367 85.9811 44.0433 85.5664 43.8564C85.1517 43.665 84.7962 43.4007 84.5 43.0635C84.2083 42.7217 83.985 42.3229 83.8301 41.8672C83.6751 41.4115 83.5977 40.917 83.5977 40.3838ZM84.8623 40.2266V40.3838C84.8623 40.7529 84.9056 41.1016 84.9922 41.4297C85.0788 41.7533 85.2087 42.0404 85.3818 42.291C85.5596 42.5417 85.7806 42.7399 86.0449 42.8857C86.3092 43.027 86.6169 43.0977 86.9678 43.0977C87.3141 43.0977 87.6172 43.027 87.877 42.8857C88.1413 42.7399 88.36 42.5417 88.5332 42.291C88.7064 42.0404 88.8363 41.7533 88.9229 41.4297C89.014 41.1016 89.0596 40.7529 89.0596 40.3838V40.2266C89.0596 39.862 89.014 39.5179 88.9229 39.1943C88.8363 38.8662 88.7041 38.5768 88.5264 38.3262C88.3532 38.071 88.1344 37.8704 87.8701 37.7246C87.6104 37.5788 87.305 37.5059 86.9541 37.5059C86.6077 37.5059 86.3024 37.5788 86.0381 37.7246C85.7783 37.8704 85.5596 38.071 85.3818 38.3262C85.2087 38.5768 85.0788 38.8662 84.9922 39.1943C84.9056 39.5179 84.8623 39.862 84.8623 40.2266ZM95.0137 36.6035V37.5742H91.0146V36.6035H95.0137ZM92.3682 34.8057H93.6328V42.168C93.6328 42.4186 93.6715 42.6077 93.749 42.7354C93.8265 42.863 93.9268 42.9473 94.0498 42.9883C94.1729 43.0293 94.305 43.0498 94.4463 43.0498C94.5511 43.0498 94.6605 43.0407 94.7744 43.0225C94.8929 42.9997 94.9818 42.9814 95.041 42.9678L95.0479 44C94.9476 44.0319 94.8154 44.0615 94.6514 44.0889C94.4919 44.1208 94.2982 44.1367 94.0703 44.1367C93.7604 44.1367 93.4756 44.0752 93.2158 43.9521C92.9561 43.8291 92.7487 43.624 92.5938 43.3369C92.4434 43.0452 92.3682 42.6533 92.3682 42.1611V34.8057ZM104.331 42.7354V38.9277C104.331 38.6361 104.272 38.3831 104.153 38.1689C104.039 37.9502 103.866 37.7816 103.634 37.6631C103.401 37.5446 103.114 37.4854 102.772 37.4854C102.453 37.4854 102.173 37.54 101.932 37.6494C101.695 37.7588 101.508 37.9023 101.371 38.0801C101.239 38.2578 101.173 38.4492 101.173 38.6543H99.9082C99.9082 38.39 99.9766 38.1279 100.113 37.8682C100.25 37.6084 100.446 37.3737 100.701 37.1641C100.961 36.9499 101.271 36.7812 101.631 36.6582C101.995 36.5306 102.401 36.4668 102.848 36.4668C103.385 36.4668 103.859 36.5579 104.27 36.7402C104.684 36.9225 105.008 37.1982 105.24 37.5674C105.477 37.932 105.596 38.39 105.596 38.9414V42.3867C105.596 42.6328 105.616 42.8949 105.657 43.1729C105.703 43.4508 105.769 43.6901 105.855 43.8906V44H104.536C104.472 43.8542 104.422 43.6605 104.386 43.4189C104.349 43.1729 104.331 42.945 104.331 42.7354ZM104.55 39.5156L104.563 40.4043H103.285C102.925 40.4043 102.604 40.4339 102.321 40.4932C102.039 40.5479 101.802 40.6322 101.61 40.7461C101.419 40.86 101.273 41.0036 101.173 41.1768C101.073 41.3454 101.022 41.5436 101.022 41.7715C101.022 42.0039 101.075 42.2158 101.18 42.4072C101.285 42.5986 101.442 42.7513 101.651 42.8652C101.866 42.9746 102.128 43.0293 102.438 43.0293C102.825 43.0293 103.167 42.9473 103.463 42.7832C103.759 42.6191 103.994 42.4186 104.167 42.1816C104.345 41.9447 104.44 41.7145 104.454 41.4912L104.994 42.0996C104.962 42.291 104.876 42.5029 104.734 42.7354C104.593 42.9678 104.404 43.1911 104.167 43.4053C103.935 43.6149 103.657 43.7904 103.333 43.9316C103.014 44.0684 102.654 44.1367 102.253 44.1367C101.752 44.1367 101.312 44.0387 100.934 43.8428C100.56 43.6468 100.268 43.3848 100.059 43.0566C99.8535 42.724 99.751 42.3525 99.751 41.9424C99.751 41.5459 99.8285 41.1973 99.9834 40.8965C100.138 40.5911 100.362 40.3382 100.653 40.1377C100.945 39.9326 101.296 39.7777 101.706 39.6729C102.116 39.568 102.574 39.5156 103.08 39.5156H104.55ZM112.322 37.7656V44H111.058V36.6035H112.288L112.322 37.7656ZM114.633 36.5625L114.626 37.7383C114.521 37.7155 114.421 37.7018 114.325 37.6973C114.234 37.6882 114.129 37.6836 114.011 37.6836C113.719 37.6836 113.462 37.7292 113.238 37.8203C113.015 37.9115 112.826 38.0391 112.671 38.2031C112.516 38.3672 112.393 38.5632 112.302 38.791C112.215 39.0143 112.158 39.2604 112.131 39.5293L111.775 39.7344C111.775 39.2878 111.819 38.8685 111.905 38.4766C111.996 38.0846 112.135 37.7383 112.322 37.4375C112.509 37.1322 112.746 36.8952 113.033 36.7266C113.325 36.5534 113.671 36.4668 114.072 36.4668C114.163 36.4668 114.268 36.4782 114.387 36.501C114.505 36.5192 114.587 36.5397 114.633 36.5625ZM115.33 40.3838V40.2266C115.33 39.6934 115.408 39.1989 115.562 38.7432C115.717 38.2829 115.941 37.8841 116.232 37.5469C116.524 37.2051 116.877 36.9408 117.292 36.7539C117.707 36.5625 118.172 36.4668 118.687 36.4668C119.206 36.4668 119.673 36.5625 120.088 36.7539C120.507 36.9408 120.863 37.2051 121.154 37.5469C121.451 37.8841 121.676 38.2829 121.831 38.7432C121.986 39.1989 122.063 39.6934 122.063 40.2266V40.3838C122.063 40.917 121.986 41.4115 121.831 41.8672C121.676 42.3229 121.451 42.7217 121.154 43.0635C120.863 43.4007 120.509 43.665 120.095 43.8564C119.685 44.0433 119.22 44.1367 118.7 44.1367C118.181 44.1367 117.714 44.0433 117.299 43.8564C116.884 43.665 116.529 43.4007 116.232 43.0635C115.941 42.7217 115.717 42.3229 115.562 41.8672C115.408 41.4115 115.33 40.917 115.33 40.3838ZM116.595 40.2266V40.3838C116.595 40.7529 116.638 41.1016 116.725 41.4297C116.811 41.7533 116.941 42.0404 117.114 42.291C117.292 42.5417 117.513 42.7399 117.777 42.8857C118.042 43.027 118.349 43.0977 118.7 43.0977C119.047 43.0977 119.35 43.027 119.609 42.8857C119.874 42.7399 120.092 42.5417 120.266 42.291C120.439 42.0404 120.569 41.7533 120.655 41.4297C120.746 41.1016 120.792 40.7529 120.792 40.3838V40.2266C120.792 39.862 120.746 39.5179 120.655 39.1943C120.569 38.8662 120.437 38.5768 120.259 38.3262C120.086 38.071 119.867 37.8704 119.603 37.7246C119.343 37.5788 119.037 37.5059 118.687 37.5059C118.34 37.5059 118.035 37.5788 117.771 37.7246C117.511 37.8704 117.292 38.071 117.114 38.3262C116.941 38.5768 116.811 38.8662 116.725 39.1943C116.638 39.5179 116.595 39.862 116.595 40.2266ZM123.643 33.5H124.914V42.5645L124.805 44H123.643V33.5ZM129.911 40.2402V40.3838C129.911 40.9215 129.847 41.4206 129.72 41.8809C129.592 42.3366 129.405 42.7331 129.159 43.0703C128.913 43.4076 128.612 43.6696 128.257 43.8564C127.901 44.0433 127.493 44.1367 127.033 44.1367C126.564 44.1367 126.151 44.057 125.796 43.8975C125.445 43.7334 125.149 43.4987 124.907 43.1934C124.666 42.888 124.472 42.5189 124.326 42.0859C124.185 41.653 124.087 41.1654 124.032 40.623V39.9941C124.087 39.4473 124.185 38.9574 124.326 38.5244C124.472 38.0915 124.666 37.7223 124.907 37.417C125.149 37.1071 125.445 36.8724 125.796 36.7129C126.147 36.5488 126.555 36.4668 127.02 36.4668C127.484 36.4668 127.897 36.5579 128.257 36.7402C128.617 36.918 128.918 37.1732 129.159 37.5059C129.405 37.8385 129.592 38.2373 129.72 38.7021C129.847 39.1624 129.911 39.6751 129.911 40.2402ZM128.64 40.3838V40.2402C128.64 39.8711 128.605 39.5247 128.537 39.2012C128.469 38.873 128.359 38.5859 128.209 38.3398C128.059 38.0892 127.86 37.8932 127.614 37.752C127.368 37.6061 127.065 37.5332 126.705 37.5332C126.386 37.5332 126.108 37.5879 125.871 37.6973C125.639 37.8066 125.44 37.9548 125.276 38.1416C125.112 38.3239 124.978 38.5335 124.873 38.7705C124.773 39.0029 124.698 39.2445 124.647 39.4951V41.1426C124.72 41.4616 124.839 41.7692 125.003 42.0654C125.172 42.3571 125.395 42.5964 125.673 42.7832C125.955 42.9701 126.304 43.0635 126.719 43.0635C127.061 43.0635 127.352 42.9951 127.594 42.8584C127.84 42.7171 128.038 42.5234 128.188 42.2773C128.343 42.0312 128.457 41.7464 128.53 41.4229C128.603 41.0993 128.64 40.7529 128.64 40.3838ZM131.176 40.3838V40.2266C131.176 39.6934 131.253 39.1989 131.408 38.7432C131.563 38.2829 131.786 37.8841 132.078 37.5469C132.37 37.2051 132.723 36.9408 133.138 36.7539C133.552 36.5625 134.017 36.4668 134.532 36.4668C135.052 36.4668 135.519 36.5625 135.934 36.7539C136.353 36.9408 136.708 37.2051 137 37.5469C137.296 37.8841 137.522 38.2829 137.677 38.7432C137.832 39.1989 137.909 39.6934 137.909 40.2266V40.3838C137.909 40.917 137.832 41.4115 137.677 41.8672C137.522 42.3229 137.296 42.7217 137 43.0635C136.708 43.4007 136.355 43.665 135.94 43.8564C135.53 44.0433 135.065 44.1367 134.546 44.1367C134.026 44.1367 133.559 44.0433 133.145 43.8564C132.73 43.665 132.374 43.4007 132.078 43.0635C131.786 42.7217 131.563 42.3229 131.408 41.8672C131.253 41.4115 131.176 40.917 131.176 40.3838ZM132.44 40.2266V40.3838C132.44 40.7529 132.484 41.1016 132.57 41.4297C132.657 41.7533 132.787 42.0404 132.96 42.291C133.138 42.5417 133.359 42.7399 133.623 42.8857C133.887 43.027 134.195 43.0977 134.546 43.0977C134.892 43.0977 135.195 43.027 135.455 42.8857C135.719 42.7399 135.938 42.5417 136.111 42.291C136.285 42.0404 136.414 41.7533 136.501 41.4297C136.592 41.1016 136.638 40.7529 136.638 40.3838V40.2266C136.638 39.862 136.592 39.5179 136.501 39.1943C136.414 38.8662 136.282 38.5768 136.104 38.3262C135.931 38.071 135.713 37.8704 135.448 37.7246C135.188 37.5788 134.883 37.5059 134.532 37.5059C134.186 37.5059 133.881 37.5788 133.616 37.7246C133.356 37.8704 133.138 38.071 132.96 38.3262C132.787 38.5768 132.657 38.8662 132.57 39.1943C132.484 39.5179 132.44 39.862 132.44 40.2266ZM142.592 36.6035V37.5742H138.593V36.6035H142.592ZM139.946 34.8057H141.211V42.168C141.211 42.4186 141.25 42.6077 141.327 42.7354C141.405 42.863 141.505 42.9473 141.628 42.9883C141.751 43.0293 141.883 43.0498 142.024 43.0498C142.129 43.0498 142.239 43.0407 142.353 43.0225C142.471 42.9997 142.56 42.9814 142.619 42.9678L142.626 44C142.526 44.0319 142.394 44.0615 142.229 44.0889C142.07 44.1208 141.876 44.1367 141.648 44.1367C141.339 44.1367 141.054 44.0752 140.794 43.9521C140.534 43.8291 140.327 43.624 140.172 43.3369C140.021 43.0452 139.946 42.6533 139.946 42.1611V34.8057Z" fill="#292929"/>
<mask id="path-8-inside-1_2091_837" fill="white">
<rect x="13" y="25" width="28" height="28" rx="1"/>
</mask>
<rect x="13" y="25" width="28" height="28" rx="1" stroke="#292929" stroke-width="4" mask="url(#path-8-inside-1_2091_837)"/>
<defs>
<clipPath id="clip0_2091_837">
<rect width="48" height="46" fill="white" transform="translate(236 11)"/>
</clipPath>
</defs>
</svg>
